<svg width="128" height="128" viewBox="0 0 128 128" fill="none" xmlns="http://www.w3.org/2000/svg">
  <!-- 背景圆形 -->
  <circle cx="64" cy="64" r="60" fill="#409EFF"/>
  
  <!-- 内部装饰六边形 -->
  <path d="M64 24L96 42V86L64 104L32 86V42L64 24Z" stroke="white" stroke-width="1" stroke-opacity="0.2"/>
  <path d="M64 32L88 45V83L64 96L40 83V45L64 32Z" stroke="white" stroke-width="1" stroke-opacity="0.1"/>
  
  <!-- 装饰性线条 -->
  <path d="M32 64H40" stroke="white" stroke-width="1" stroke-opacity="0.3"/>
  <path d="M88 64H96" stroke="white" stroke-width="1" stroke-opacity="0.3"/>
  <path d="M64 96V104" stroke="white" stroke-width="1" stroke-opacity="0.3"/>
  
  <!-- N 字母 - 科技艺术风格 -->
  <path d="M42 38H54V68L73 38H85V86H73V56L54 86H42V38Z" fill="white"/>
  <!-- N 字母装饰线条 -->
  <path d="M42 42H50" stroke="#409EFF" stroke-width="2"/>
  <path d="M77 42H85" stroke="#409EFF" stroke-width="2"/>
  <path d="M42 82H50" stroke="#409EFF" stroke-width="2"/>
  <path d="M77 82H85" stroke="#409EFF" stroke-width="2"/>
  <!-- N 字母内部装饰 -->
  <path d="M54 45L73 38" stroke="white" stroke-width="1" stroke-opacity="0.5"/>
  <path d="M54 79L73 86" stroke="white" stroke-width="1" stroke-opacity="0.5"/>
  <!-- 点缀效果 -->
  <circle cx="42" cy="38" r="2" fill="white" fill-opacity="0.6"/>
  <circle cx="85" cy="38" r="2" fill="white" fill-opacity="0.6"/>
  <circle cx="42" cy="86" r="2" fill="white" fill-opacity="0.6"/>
  <circle cx="85" cy="86" r="2" fill="white" fill-opacity="0.6"/>
  
  <!-- G 字母 - 标准印刷体 -->
  <path d="M42 90H52C54 90 55 92 55 94V94H42V90ZM42 92V94H52C53 94 53 93 53 92H42Z" fill="white"/>
  
  <!-- B 字母 - 标准印刷体 -->
  <path d="M73 90H83C84 90 85 91 85 92C85 93 84 94 83 94H73V90ZM75 91V93H83C83.5 93 83.5 92 83.5 91.5C83.5 91 83.5 91 83 91H75Z" fill="white"/>
  
  <!-- 科技感装饰 -->
  <circle cx="32" cy="64" r="2" fill="white" fill-opacity="0.2"/>
  <circle cx="96" cy="64" r="2" fill="white" fill-opacity="0.2"/>
  <circle cx="64" cy="104" r="2" fill="white" fill-opacity="0.2"/>
  
  <!-- 点缀线条 -->
  <path d="M34 64C34 47.4315 47.4315 34 64 34" stroke="white" stroke-width="1" stroke-linecap="round" stroke-dasharray="2 4" opacity="0.2"/>
  <path d="M94 64C94 80.5685 80.5685 94 64 94" stroke="white" stroke-width="1" stroke-linecap="round" stroke-dasharray="2 4" opacity="0.2"/>
</svg> 